<svg width="437" height="190" viewBox="0 0 437 190" fill="none" xmlns="http://www.w3.org/2000/svg">
<rect width="437" height="190" fill="#FAFAFA"/>
<g opacity="0.05">
<mask id="mask0_2060_409" style="mask-type:alpha" maskUnits="userSpaceOnUse" x="101" y="0" width="336" height="190">
<rect x="101" width="336" height="190" fill="#E8F3F7"/>
</mask>
<g mask="url(#mask0_2060_409)">
<path d="M377.864 135.682V236.93C373.114 236.825 368.378 235.726 363.94 233.628L318.78 212.274C305.733 206.104 297.325 192.338 297.325 177.148V111.793C297.325 106.265 298.44 100.925 300.485 96.0715L377.864 135.682ZM423.023 219.566L393.286 233.628C388.849 235.726 384.114 236.825 379.364 236.93V135.682L423.023 113.332V219.566ZM456.74 96.0715C458.786 100.925 459.901 106.265 459.901 111.793V177.148C459.901 192.338 451.493 206.104 438.446 212.274L424.523 218.857V112.564L456.74 96.0715ZM422.188 112.073L378.613 134.379L301.096 94.6975C304.767 86.8353 310.934 80.3773 318.78 76.6672L340.811 66.2493L422.188 112.073ZM363.94 55.3127C373.282 50.8956 383.945 50.8956 393.286 55.3127L438.446 76.6672C446.292 80.3773 452.46 86.8353 456.131 94.6975L423.79 111.253L342.473 65.4631L363.94 55.3127Z" fill="black"/>
</g>
</g>
</svg>
