<svg width="46" height="46" viewBox="0 0 46 46" fill="none" xmlns="http://www.w3.org/2000/svg">
<path d="M3.83301 11.5H34.4997C38.7339 11.5 42.1663 14.9325 42.1663 19.1667V34.5C42.1663 38.7342 38.7339 42.1667 34.4997 42.1667H11.4997C7.26549 42.1667 3.83301 38.7342 3.83301 34.5V11.5Z" stroke="#222222" stroke-width="1.5" stroke-linejoin="round"/>
<path d="M3.83301 11.4999C3.83301 7.26574 7.26549 3.83325 11.4997 3.83325H22.9997C27.2339 3.83325 30.6663 7.26574 30.6663 11.4999H3.83301Z" stroke="#222222" stroke-width="1.5" stroke-linejoin="round"/>
<path d="M42.167 23L42.167 30.6667H34.5003C32.3832 30.6667 30.667 28.9504 30.667 26.8333C30.667 24.7162 32.3832 23 34.5003 23L42.167 23Z" stroke="#222222" stroke-width="1.5" stroke-linejoin="round"/>
</svg>
