<svg width="47" height="42" viewBox="0 0 47 42" fill="none" xmlns="http://www.w3.org/2000/svg">
<path d="M46.4183 19.6893L47 17.7087L44.9641 17.767C44.7896 17.767 43.5681 17.7087 42.3465 16.835H42.6374C43.8589 16.835 45.0804 16.0777 45.5458 15.0291L46.4183 13.1068C45.3131 13.1068 44.3243 12.9903 44.3243 12.9903C44.3243 12.9903 43.5099 12.8738 42.6374 11.9417C41.9975 11.301 41.1832 10.9515 40.3106 10.9515C39.9035 10.9515 39.6126 11.0097 39.3218 11.1262C39.3799 10.9515 39.4381 10.835 39.4381 10.6602C39.729 8.85437 38.5656 7.45631 38.5656 7.45631L37.0532 5.59223L36.1225 7.80583C36.1225 7.80583 35.8899 8.3301 35.4827 8.56311C35.3663 7.92233 35.0173 7.16505 34.3775 6.46602C33.0978 5.12621 31.5854 4.95146 30.771 4.95146C30.422 4.95146 30.1312 5.00971 30.073 5.00971L28.2116 5.35922C28.328 4.95146 28.5606 4.25243 28.9678 3.61165L29.9567 2.03884L27.3391 2.3301L26.5248 0.582524L24.9542 1.39806L23.5 0L22.104 1.45631L20.5334 0.640777L19.7191 2.38835L17.1597 2.09709L18.1485 3.6699C18.5557 4.31068 18.7884 5.00971 18.9047 5.41748L17.1597 5.06796H17.1015C16.9851 5.06796 16.7525 5.00971 16.3453 5.00971C15.5309 5.00971 14.0186 5.18447 12.7389 6.52427C12.0408 7.2233 11.75 7.98058 11.6337 8.62136C11.2265 8.38835 10.9938 7.86408 10.9938 7.86408L10.0631 5.65049L8.49257 7.57282C8.31807 7.80583 7.38738 9.08738 7.62005 10.7184C7.62005 10.8932 7.67822 11.0097 7.73639 11.1845C7.44554 11.068 7.09653 11.0097 6.74752 11.0097C5.875 11.0097 5.06064 11.3592 4.42079 12C3.4901 12.932 2.73391 13.0485 2.73391 13.0485C2.73391 13.0485 1.91955 13.2233 0.639852 13.165L1.51238 15.0874C1.97772 16.1359 3.19926 16.8932 4.42079 16.8932H4.71163C3.4901 17.767 2.26856 17.8252 2.09406 17.8252L0 17.7087L0.639852 19.6893C0.930693 20.6796 1.97772 22.3689 4.01361 22.5437C3.78094 23.4757 3.31559 24.466 2.26856 24.932L0.756188 25.5728L1.57054 27.0291C2.03589 27.7864 3.14109 28.7184 4.71163 28.7184C5.06064 28.7184 5.40965 28.6602 5.7005 28.6019C5.75866 28.9515 5.875 29.301 5.99134 29.6505C6.45668 31.0485 6.0495 32.0388 6.0495 32.0388L5.29332 33.6117L6.9802 34.0777C6.9802 34.0777 7.50371 34.2524 8.14356 34.2524C8.43441 34.2524 8.72525 34.1942 8.95792 34.1359C9.13243 34.0777 9.3651 34.0194 9.5396 33.9612C9.77228 34.3689 10.0049 34.7184 10.354 35.0097C11.4592 36.1165 12.9715 36.699 14.8911 36.699H16.2871L13.4369 37.8641L15.5891 38.9126C16.4035 39.3204 17.3342 39.7282 18.2649 40.0777L17.974 40.835L18.7302 41.1845C18.7884 41.2427 20.2426 41.8835 22.6275 42H24.3725C26.7574 41.8835 28.2116 41.2427 28.2698 41.1845L29.026 40.835L28.7351 40.0777C29.724 39.7282 30.7129 39.2621 31.4691 38.8544L33.6213 37.8058L30.771 36.6408H32.1671C34.0866 36.6408 35.6572 36.0583 36.7042 34.9515C36.995 34.6602 37.2859 34.2524 37.5186 33.9029C37.6931 33.9612 37.8676 34.0194 38.1002 34.0777C38.3329 34.1359 38.6238 34.1942 38.9146 34.1942C39.5545 34.1942 40.078 34.0777 40.078 34.0777L41.7649 33.6117L41.0087 32.0388C41.0087 31.9806 40.6015 31.0485 41.0668 29.6505C41.1832 29.301 41.2995 28.9515 41.3577 28.6019C41.6485 28.6602 41.9975 28.7184 42.3465 28.7184C44.3824 28.7184 45.3131 27.3204 45.4876 26.9709L46.302 25.5146L44.7896 24.8738C43.7426 24.4078 43.2191 23.4175 43.0446 22.4854C45.0223 22.3689 46.1275 20.6796 46.4183 19.6893ZM23.5 6C21.8713 6 20.6498 6.52427 20.4171 7.16505L23.5 8.38835L26.5829 7.16505C26.3502 6.52427 25.1287 6 23.5 6ZM23.5582 38.4466H23.5C22.5111 38.4466 21.1733 38.2718 20.5334 38.0388L19.7191 40.1942C20.2426 40.3689 21.9876 40.7184 23.5 40.7184C25.0124 40.7184 26.8156 40.3689 27.2809 40.1942L26.5248 38.0388C25.8849 38.2718 24.547 38.4466 23.5582 38.4466Z" fill="white"/>
<path d="M29.4916 36.3492C28.9099 36.6987 27.6302 37.1647 26.874 37.3977L27.5139 39.1453C28.6772 38.7958 29.6661 38.4462 30.4804 38.0385L29.0844 37.6307L29.4916 36.3492ZM17.5671 36.3492L17.9743 37.6307L16.6364 38.0967C17.4507 38.5045 18.3814 38.854 19.603 39.2035L20.2428 37.456C19.4285 37.1647 18.1488 36.6987 17.5671 36.3492ZM23.5002 3.96081C24.7218 3.96081 25.9433 4.25207 26.874 4.77634C26.9322 4.48508 27.0485 4.13556 27.223 3.78605L26.874 3.8443L26.525 3.90255L26.3505 3.55304L25.8851 2.56275L25.0126 3.02877L24.6636 3.20353L24.4309 2.91226L23.5002 1.98022L22.6277 2.91226L22.3369 3.14527L21.9879 2.97052L21.1153 2.5045L20.65 3.49479L20.4755 3.8443L20.1265 3.78605L19.7775 3.7278C19.952 4.07731 20.0683 4.42683 20.1265 4.71809C21.1153 4.25207 22.2787 3.96081 23.5002 3.96081ZM42.1723 15.3783C42.3468 15.4365 42.4631 15.4365 42.6376 15.4365C43.3356 15.4365 43.9755 14.9705 44.2082 14.5045C44.2082 14.5045 42.9285 14.4462 41.5906 13.0482C41.1834 12.5822 40.7181 12.4657 40.3109 12.4657C39.671 12.4657 39.2639 12.8152 39.2639 12.8152C40.9507 13.6307 41.2416 15.0288 42.1723 15.3783ZM4.36287 15.4365C4.53737 15.4365 4.71188 15.4365 4.82821 15.3783C5.75891 15.087 6.10792 13.6307 7.73663 12.7569C7.73663 12.7569 7.27128 12.4074 6.6896 12.4074C6.28242 12.4074 5.81707 12.5239 5.4099 12.9899C4.07202 14.388 2.79232 14.4462 2.79232 14.4462C3.02499 14.9705 3.66485 15.4365 4.36287 15.4365ZM42.6376 21.087H42.6958C44.4408 21.087 45.0225 19.2229 45.0225 19.2229H44.9644C44.6735 19.2229 42.0559 19.1647 40.2527 16.8346C39.0312 15.32 38.1005 13.9802 36.1228 13.456L35.9483 13.3977L35.8901 13.2229C35.8319 12.9317 36.0646 12.6404 36.4718 12.3492C39.1475 10.6016 37.3443 8.38799 37.3443 8.38799C37.3443 8.38799 36.5881 10.1938 34.9012 10.1938H34.7849C34.6104 10.1938 34.3777 10.1938 34.2032 10.1356L33.9124 10.0773C33.9124 10.0773 34.3777 8.73751 33.2144 7.51421C32.3418 6.58217 31.2366 6.46566 30.6549 6.46566C30.3641 6.46566 30.1314 6.52391 30.1314 6.52391C30.7131 7.2812 31.1203 8.56275 30.4804 9.37828C29.8988 10.0773 28.4446 10.0773 28.4446 11.1259C28.4446 11.5336 28.8517 12.0579 29.5497 12.5239C31.702 13.8637 33.8542 15.6695 34.7267 18.1161C35.8319 21.1453 34.6104 23.1259 32.8072 24.2909C32.8072 24.2909 33.3889 24.8152 34.2032 24.8734H34.6686C36.4136 24.8734 37.2861 24.0579 37.2861 24.0579C37.2861 24.0579 37.1116 25.1647 36.2391 26.2132C35.4247 27.1453 34.3196 27.7278 32.6908 27.7278C32.6908 27.7278 32.6327 28.4851 33.3889 29.1841C33.8542 29.5919 34.9594 29.7666 34.9594 29.7666C34.9594 29.7666 32.9235 30.1744 32.6908 33.1453C32.5745 34.7763 32.1673 35.3589 32.1673 35.3589H32.2255C36.9371 35.3589 36.8208 31.3394 36.8208 31.3394C36.8208 31.3394 37.1698 32.5627 38.4495 32.854C38.624 32.9123 38.7985 32.9123 38.9148 32.9123C39.322 32.9123 39.7292 32.7958 39.7292 32.7958C39.7292 32.7958 39.0312 31.3394 39.7292 29.3006C40.3109 27.6113 40.1945 26.388 40.1945 26.388C40.1945 26.388 40.8344 27.32 42.4049 27.3783C43.6847 27.3783 44.2663 26.388 44.2663 26.388C41.1252 25.1064 41.4161 20.854 41.4161 20.854C41.4161 20.854 41.8233 21.087 42.6376 21.087ZM41.7069 25.456C40.4272 24.8152 39.6129 23.1841 39.4384 22.5433C39.2057 25.8637 37.6351 28.1356 35.7156 30.3492C34.7267 31.5142 34.3777 32.621 34.3777 32.621C34.3777 32.621 34.5522 31.3394 35.4248 30.3492C37.1698 28.2521 38.8567 25.5725 38.973 22.5433C39.0312 20.388 38.5077 18.6987 37.6351 17.2424C38.1005 18.6987 38.0423 20.5627 36.4136 22.2521C36.4136 22.2521 39.6129 18.4074 35.1339 14.388C33.3307 12.8734 31.353 11.9414 30.3641 11.3006C34.0287 12.5239 35.8319 11.1841 35.8319 11.1841C34.6686 12.1744 33.1562 12.1744 32.2255 12.0579C32.4582 12.1744 32.749 12.2909 33.0398 12.4657C36.1228 14.155 38.9148 16.9511 39.3802 20.7375V20.6793C40.0782 24.5239 41.7069 25.456 41.7069 25.456ZM12.0993 29.6501C12.0993 29.6501 13.2045 29.5336 13.6698 29.0676C14.426 28.4268 14.3678 27.6113 14.3678 27.6113C12.7391 27.6113 11.6339 27.0288 10.8195 26.0967C9.94702 25.0482 9.77252 23.9414 9.77252 23.9414C9.77252 23.9414 10.645 24.7569 12.3901 24.7569H12.8554C13.6698 24.6987 14.2515 24.1744 14.2515 24.1744C12.4483 23.0094 11.2267 21.0288 12.3319 17.9996C13.2045 15.553 15.3567 13.7472 17.5089 12.4074C18.2069 11.9414 18.6141 11.4754 18.6141 11.0094C18.6141 10.0191 17.1599 9.96081 16.5782 9.26178C15.8802 8.44624 16.3455 7.16469 16.9272 6.40741C16.9272 6.40741 16.7527 6.34916 16.4037 6.34916C15.7639 6.34916 14.7168 6.52391 13.8443 7.3977C12.6809 8.621 13.1463 9.96081 13.1463 9.96081L12.7973 10.1356C12.6228 10.1938 12.4483 10.1938 12.2156 10.1938H12.0993C10.4124 10.1938 9.65618 8.38799 9.65618 8.38799C9.65618 8.38799 7.85297 10.6016 10.5287 12.3492C10.9941 12.6404 11.1686 12.9317 11.1104 13.2229L11.0522 13.456L10.8777 13.5142C8.95816 14.0385 7.9693 15.3783 6.74777 16.8928C4.94455 19.2229 2.38514 19.2812 2.03613 19.2812C2.03613 19.2812 2.61782 21.1453 4.36287 21.1453H4.42103C5.23539 21.1453 5.64257 20.7958 5.64257 20.7958C5.64257 20.7958 5.93341 24.9899 2.79232 26.3297C2.79232 26.3297 3.374 27.32 4.65371 27.32C6.22425 27.32 6.8641 26.3297 6.8641 26.3297C6.8641 26.3297 6.74777 27.553 7.32945 29.2424C8.02747 31.2812 7.32945 32.7375 7.32945 32.7375C7.32945 32.7375 7.67846 32.854 8.14381 32.854C8.31831 32.854 8.49282 32.854 8.60915 32.7958C9.94702 32.5045 10.2379 31.2812 10.2379 31.2812C10.2379 31.2812 10.1215 35.3006 14.8332 35.3006H14.8913C14.8913 35.3006 14.4842 34.7181 14.3678 33.087C14.1351 30.1161 12.0993 29.6501 12.0993 29.6501ZM11.3431 30.4074C9.48168 28.1938 7.85297 25.922 7.62029 22.6016C7.44579 23.1841 6.63143 24.8734 5.35173 25.5142C5.35173 25.5142 6.98044 24.5239 7.67846 20.7958V20.854C8.14381 17.0093 10.9359 14.2715 14.0188 12.5822C14.3096 12.4074 14.5423 12.2909 14.8332 12.1744C13.9025 12.3492 12.3901 12.3492 11.2267 11.3006C11.2267 11.3006 13.0299 12.6404 16.6946 11.4171C15.7057 12.0579 13.728 12.9899 11.9247 14.5045C7.38762 18.4657 10.645 22.3686 10.645 22.3686C9.01633 20.6793 8.95816 18.8734 9.42351 17.3589C8.55099 18.7569 8.02747 20.5045 8.08564 22.6598C8.20197 25.6307 9.88886 28.2521 11.6339 30.4074C12.5064 31.456 12.6809 32.6793 12.6809 32.6793C12.6809 32.6793 12.3319 31.5725 11.3431 30.4074Z" fill="white"/>
<path d="M20.0687 14.9128C20.1268 14.9711 20.2432 15.0876 20.3013 15.2041L20.3595 15.2623C20.4177 15.3788 20.4758 15.4371 20.534 15.5536C20.534 15.5536 20.534 15.6118 20.5922 15.6118C20.6503 15.7283 20.7667 15.8448 20.8248 15.9613C21.5229 17.1264 22.5699 17.8254 23.5588 17.8254C24.5476 17.8254 25.5946 17.1264 26.2927 15.9613C26.3508 15.8448 26.4672 15.7283 26.5253 15.6118C26.5253 15.6118 26.5253 15.5536 26.5835 15.5536C26.6417 15.4371 26.6998 15.3788 26.8162 15.2623L26.8743 15.2041C26.9325 15.0876 27.0489 15.0293 27.107 14.9128L27.1652 14.8545C27.5142 14.505 27.9214 14.2138 28.4449 14.0973L28.0959 13.9808L27.1652 13.3982L26.1763 12.8157L23.5588 14.272L20.9412 12.8157L19.9523 13.3982L19.0216 13.9808L18.789 14.0973C19.2543 14.272 19.6615 14.505 20.0687 14.9128C20.0105 14.9128 20.0105 14.9128 20.0687 14.9128ZM22.4536 14.7963H24.664V15.5536C24.4313 15.2623 23.9078 15.3206 23.9078 15.3206V16.4274C23.9078 16.4274 23.9078 16.9516 24.1404 17.1846H23.0934C23.2679 16.9516 23.3261 16.4274 23.3261 16.4274V15.3206C23.3261 15.3206 22.8026 15.2623 22.5699 15.5536V14.7963H22.4536ZM23.3261 13.34V8.85455L20.4758 7.86426L21.232 12.1749L23.3261 13.34ZM22.6862 9.96135V10.6604L22.5699 10.6021C22.5699 10.6021 22.3372 10.5439 21.9882 10.2526C21.4065 9.78659 21.4065 9.37882 21.4065 9.37882L22.6862 9.96135ZM25.8273 12.2332L26.5835 7.92251L23.7333 8.9128V13.3982L25.8273 12.2332ZM24.3731 9.96135L25.6528 9.43707C25.6528 9.43707 25.6528 9.84484 25.0711 10.3109C24.7221 10.6021 24.5476 10.6604 24.4894 10.6604L24.3731 10.7186V9.96135ZM19.3125 23.6507C19.6033 23.7672 19.8942 23.7672 20.0687 23.7672V23.7089C20.0687 23.6507 20.1268 23.5924 20.1268 23.5342C20.185 23.3012 20.185 23.0099 20.185 22.8351C20.0687 22.7769 19.8942 22.6604 19.836 22.4274C19.7196 22.1944 19.6033 22.0779 19.3706 22.0779C19.0798 22.0779 18.789 22.2526 18.6726 22.3109C18.5563 23.0099 18.9635 23.5342 19.3125 23.6507ZM25.5365 21.3206C25.013 21.9031 23.9659 22.8934 23.9078 22.9516L23.8496 23.0099L20.5922 22.9516C20.5922 23.3012 20.534 23.5342 20.4758 23.7672V23.8837L24.3731 24.5827C24.7803 24.2914 25.8855 23.4759 26.2927 23.1846C26.0018 22.7186 25.9437 22.1944 26.0018 21.7866C25.8273 21.6118 25.711 21.4371 25.5365 21.3206Z" fill="white"/>
<path d="M26.0002 17.359C25.244 18.1163 24.546 18.4076 23.9062 18.4658H23.2081C23.0918 18.4658 22.9755 18.4658 22.8591 18.4076C22.801 18.5823 22.7428 18.9318 22.9173 19.2814C23.0336 19.5726 23.3245 19.8056 23.7317 19.9804L23.848 20.0386V20.2134C23.848 20.2717 23.9062 21.2037 24.895 21.495C25.0695 21.3202 25.244 21.1454 25.3022 21.0289C25.0695 20.5047 25.1859 20.0386 25.5349 19.7474C25.5349 19.8056 25.3604 21.0289 26.4074 21.495L26.5819 21.5532L26.5237 21.728C26.5237 21.7862 26.1747 23.0095 27.3963 23.4173L27.6289 23.4755L27.5126 23.7085C27.5126 23.7668 27.0473 24.8736 28.1525 25.4561H30.5955V23.5338C29.723 23.4173 29.374 22.7183 29.2577 22.2522C28.8505 22.194 28.5596 22.0192 28.327 21.728C27.8034 21.0872 28.2688 20.4464 28.2688 20.3882C28.2688 20.3882 28.2688 21.0289 28.676 21.4367C28.8505 21.6115 29.0831 21.7862 29.4903 21.7862H29.6648V21.961C29.6648 22.0192 29.7812 22.893 30.5955 23.0095V19.1066C30.5955 18.5241 30.77 17.8833 31.0027 17.3008H26.0002V17.359ZM19.4854 19.1649L19.4272 21.6697L19.718 21.728L20.4161 19.3396L20.0671 18.5823L19.4854 19.1649ZM27.1636 30.6406H27.2218C27.6289 30.7571 27.7453 32.3299 28.5015 32.4464H28.676C28.9086 32.4464 29.025 32.3299 29.1413 32.2134C29.1413 32.2134 28.7341 31.6309 28.5015 31.2231C28.0943 30.6988 27.8034 30.0581 27.1054 30.0581H27.0473C26.8146 30.0581 26.6982 30.1746 26.6982 30.1746C26.4074 29.9998 26.1747 29.9416 25.8839 29.9416C25.4185 29.9416 25.1277 30.1163 24.9532 30.1163L23.3827 29.9416C23.15 29.9416 22.9173 29.6503 22.8591 29.592V29.4173C22.801 28.1357 21.8121 27.5532 21.4631 27.5532C21.4631 27.5532 21.5213 27.3202 21.4049 27.2037L21.0559 27.6115L19.8926 27.0289L20.7069 27.961L20.0089 28.7183C19.9507 28.8348 19.9507 28.9513 19.9507 28.9513L20.2416 29.2425L20.5906 29.0095H21.1141C21.2886 29.0095 21.4049 28.9513 21.4049 28.8348C21.3468 29.3008 20.9396 30.1163 21.2304 30.8153L21.4631 31.2814L20.0671 31.1066L19.4272 32.2134C19.2527 32.5629 19.1945 32.9707 19.369 33.2037L19.6017 33.495C19.6017 33.495 19.9507 33.1454 20.0089 32.9124L19.8926 32.7959C19.7762 32.6794 19.7762 32.6212 19.8344 32.5047L20.2416 31.8056L21.8703 32.2134L21.9284 32.0386C22.0448 31.8639 22.2193 31.8056 22.3938 31.8056H22.6265C22.9173 31.8639 23.4408 31.9221 23.9062 31.9221C24.4297 31.9221 25.0114 31.8056 25.3022 31.5144C25.8839 32.3882 27.1054 32.5629 26.9891 32.9707L26.6982 34.4853C26.9309 34.4853 27.1054 34.4852 27.2799 34.427L27.5708 32.8542C27.6289 32.6794 27.6289 32.4464 27.6289 32.4464C27.5126 32.3299 27.2218 32.0969 27.0473 31.7474C26.8146 31.3396 26.9309 31.1066 26.7564 30.5823C26.9309 30.7571 26.9891 30.6406 27.1636 30.6406ZM20.9977 28.427C20.9396 28.427 20.8814 28.3687 20.8814 28.2522C20.8814 28.194 20.9396 28.1357 21.0559 28.1357C21.1141 28.1357 21.1723 28.194 21.1723 28.3105C21.1141 28.3687 21.0559 28.427 20.9977 28.427Z" fill="white"/>
<path d="M18.7301 32.0385C18.7301 32.0385 19.2537 31.8055 19.3118 31.6307L19.2537 31.456C19.1955 31.3395 19.1955 31.223 19.3118 31.1647L19.8935 30.7569L20.8824 30.9317C20.8824 30.9317 20.7079 30.6987 20.7079 30.4074L19.7772 30.2327L18.9046 30.7569C18.4975 31.0482 18.4975 31.5142 18.6138 31.8055L18.7301 32.0385ZM25.7103 34.6016H26.292C26.292 34.6016 26.8155 33.1453 26.8155 33.087C26.5247 32.9705 25.943 32.621 25.7103 32.5045C25.8848 32.7375 26.2339 32.9705 26.1757 33.2035L25.7103 34.6016Z" fill="white"/>
<path d="M30.4793 25.8641H16.5189V31.1068C16.5189 33.2621 18.0895 34.6019 20.358 34.6019C22.2776 34.6019 22.8011 34.6602 23.4991 35.3592C23.9645 34.8932 24.3717 34.6602 25.2442 34.6019V34.5437L25.7095 33.2039C25.7095 33.1456 24.9533 32.3301 24.9533 32.3301C24.6625 32.4466 24.4298 32.4466 24.0226 32.4466C23.6155 32.4466 23.1501 32.3884 22.6266 32.3301H22.4521C22.3939 32.3301 22.3939 32.3301 22.3939 32.3884L22.3358 32.5049L22.1613 32.7961L21.8704 32.7379L20.5325 32.4466L20.358 32.6796V32.7379L20.5325 32.9126L20.4744 33.1456C20.358 33.4369 20.0672 33.7864 19.9509 33.9029L19.6019 34.2524L19.311 33.8447L19.0783 33.5534C18.8457 33.2621 18.7875 32.8544 18.9038 32.4466L18.5548 32.6214L18.3803 32.2719L18.264 32.0388C18.0313 31.5728 18.1476 30.932 18.6712 30.5243L19.7764 29.9418L20.8234 30.1165C20.8234 30 20.8816 29.6505 20.9397 29.5922H20.8816L20.2999 29.8252L19.7182 29.4175C19.7182 29.4175 19.4855 29.1845 19.7182 29.0097L20.2417 28.1942L18.8457 26.4466L20.9979 27.3204L21.1142 27.1456L21.4051 26.7961L21.7541 27.0874C21.8704 27.2039 21.9286 27.2621 21.9286 27.3786C22.5103 27.6117 23.5573 28.3107 23.6736 29.4175H23.2665C23.3246 29.534 23.3828 29.534 23.441 29.534L24.9533 29.7087C25.0115 29.7087 25.0115 29.7087 25.0697 29.6505C25.2442 29.5922 25.535 29.4757 25.884 29.4757C26.1749 29.4757 26.4075 29.534 26.6984 29.6505C26.8147 29.5922 26.9311 29.5922 27.0474 29.5922H27.1056C27.9199 29.5922 28.3271 30.233 28.6761 30.699C28.7343 30.7573 28.7924 30.8738 28.8506 30.932C29.1415 31.3398 29.4905 31.9223 29.5486 31.9806L29.7231 32.2719L29.4905 32.5049C29.316 32.6796 29.0833 32.9126 28.6761 32.9126H28.3853C28.3271 32.9126 28.2108 32.8544 28.1526 32.8544C28.1526 32.9126 28.1526 33.0291 28.0944 33.0874L27.8036 34.4854C29.4323 34.0777 30.4212 32.8544 30.4212 31.1068L30.4793 25.8641ZM16.5189 25.4563H27.3964C26.8729 24.8738 26.8729 24.1748 26.9892 23.7087C26.8147 23.6505 26.6984 23.534 26.5821 23.4175C26.1749 23.7087 24.837 24.699 24.5462 24.932L24.488 24.9903L20.2417 24.233H19.7764C19.7182 24.4078 19.5437 24.5825 19.3692 24.5825H19.311C19.1947 24.5825 19.0783 24.5243 19.0202 24.4078C18.962 24.2913 18.9038 24.233 18.962 24.1165V24C18.4967 23.7087 18.0895 23.0097 18.3221 22.2524V22.1942L18.3803 22.1359C18.3803 22.1359 18.4385 22.0777 18.5548 22.0194L18.264 21.9612C18.1476 21.9612 18.0895 21.8447 18.0895 21.7282C18.0895 21.6117 18.2058 21.5534 18.3221 21.5534L19.0783 21.6699L19.1365 19.0485L20.2417 17.8835L20.9397 19.3398L20.2417 21.8447L20.8816 21.9612C20.9979 21.9612 21.0561 22.0777 21.0561 22.1942C21.0561 22.3107 20.9397 22.3689 20.8234 22.3689H20.7652L20.2417 22.3107V22.3689C20.2999 22.4854 20.4162 22.5437 20.4744 22.6019L23.7318 22.6602L24.5462 21.8447C23.7318 21.5534 23.441 20.8544 23.3828 20.3884C22.9174 20.2136 22.6266 19.9223 22.4521 19.5146C22.2194 19.0485 22.3358 18.5825 22.3939 18.3495C21.9868 18.1748 21.5214 17.8835 21.0561 17.4175H16.1699C16.4026 18 16.5771 18.5825 16.5771 19.2233V25.4563H16.5189Z" fill="#FCE527"/>
<path d="M20.9978 28.1357C20.9397 28.1357 20.8233 28.194 20.8233 28.2522C20.8233 28.3105 20.8815 28.427 20.9397 28.427C20.9978 28.427 21.1142 28.3688 21.1142 28.3105C21.1723 28.194 21.1142 28.1357 20.9978 28.1357ZM30.4793 37.6891L29.6649 37.3396L29.8976 36.5241L30.1303 35.5921C30.1303 35.5921 28.7342 36.3493 26.6983 36.9319C26.1167 37.1066 25.7095 37.1649 25.7095 37.1649V37.8639C25.7095 37.8639 24.6624 38.0387 23.5572 38.0387C22.4521 38.0387 21.405 37.8639 21.405 37.8639V37.2231C21.405 37.2231 20.9978 37.1649 20.4162 36.9901C18.3803 36.4076 16.9842 35.6503 16.9842 35.6503L17.2169 36.5823L17.4496 37.3979L16.6352 37.6891L15.7627 38.0387C16.8097 38.5629 18.2058 39.262 19.4855 39.6115L19.1946 40.427C19.1946 40.427 20.8233 41.1843 23.6154 41.1843C26.3493 41.1843 28.0362 40.427 28.0362 40.427L27.7454 39.6115C29.0251 39.262 30.4793 38.5047 31.4681 38.0387L30.4793 37.6891ZM16.6352 38.0387L17.9731 37.5726L17.5659 36.2911C18.1476 36.6406 19.4273 37.1066 20.1835 37.3396L19.5436 39.0872C18.3803 38.8542 17.4496 38.4464 16.6352 38.0387ZM23.4991 40.7183C21.9867 40.7183 20.1835 40.3688 19.7181 40.194L20.4743 38.0387C21.1142 38.2134 22.4521 38.4464 23.4409 38.4464H23.4991C24.4879 38.4464 25.8258 38.2717 26.4657 38.0387L27.3382 40.194C26.8147 40.3688 25.0696 40.7183 23.4991 40.7183ZM27.5127 39.1455L26.8728 37.3979C27.629 37.1649 28.9087 36.6406 29.5486 36.3493L29.0832 37.6309L30.4211 38.0969C29.6068 38.4464 28.6761 38.8542 27.5127 39.1455Z" fill="black"/>
<path d="M23.4996 4.48538C25.1283 4.48538 26.4662 5.00965 27.1642 5.59217C27.1642 5.59217 27.3969 4.31062 28.0949 3.14557L26.757 3.32033L26.059 1.86402L24.7211 2.56305L23.4414 1.28149L22.1617 2.56305L20.9402 1.86402L20.2422 3.32033L18.9043 3.14557C19.6605 4.31062 19.835 5.59217 19.835 5.59217C20.5912 5.00965 21.8709 4.48538 23.4996 4.48538ZM20.184 3.8446L20.533 3.90285L20.7075 3.55334L21.1729 2.56305L22.0454 3.02907L22.3944 3.20382L22.6271 2.91256L23.5578 1.98052L24.4303 2.91256L24.7211 3.14557L25.0701 2.97081L25.9427 2.5048L26.408 3.49509L26.5825 3.8446L26.9315 3.78635L27.2805 3.7281C27.106 4.07761 26.9897 4.42713 26.9315 4.71839C26.0008 4.19412 24.8375 3.90285 23.5578 3.90285C22.3362 3.90285 21.1147 4.19412 20.2422 4.71839C20.184 4.42713 20.0677 4.07761 19.8932 3.7281L20.184 3.8446ZM42.6951 21.6698C44.7892 21.6698 45.5454 19.5145 45.5454 19.398L45.7781 18.6407H44.9637C44.6729 18.6407 42.3461 18.5825 40.7174 16.4854L40.6011 16.3106C39.4959 14.9126 38.507 13.631 36.6456 13.0485C36.7038 12.9902 36.762 12.932 36.8783 12.8737C37.8672 12.2329 38.3907 11.4757 38.5652 10.5436C38.7979 9.20382 37.9253 8.09703 37.8672 8.03878L37.2855 7.28149L36.9365 8.15528C36.9365 8.21353 36.2966 9.61159 35.0169 9.61159H34.6679C34.7261 8.97081 34.6097 8.03878 33.7372 7.16499C32.6902 6.05819 31.4105 5.94169 30.7706 5.94169C30.4216 5.94169 30.1889 5.99994 30.1308 5.99994L29.2583 6.1747L29.7818 6.87373C30.189 7.45625 30.5961 8.44654 30.1308 9.02907C29.9563 9.20382 29.6654 9.32033 29.3746 9.49509C28.7929 9.78635 27.9786 10.1359 27.9786 11.1262C27.9786 11.7669 28.4439 12.4077 29.3746 12.9902C31.9922 14.6213 33.6209 16.3689 34.3189 18.2912C35.4241 21.2038 33.9699 22.8931 32.632 23.7669L31.9922 24.1747L32.5157 24.699C32.5739 24.7572 33.2719 25.3397 34.2026 25.4562H34.7261C35.3659 25.4562 35.8894 25.3397 36.2966 25.2232C36.1803 25.4562 36.0058 25.631 35.8313 25.864C35.0169 26.7961 34.0862 27.2038 32.6902 27.2038H32.1667L32.1085 27.7281C32.1085 27.8446 32.0503 28.7766 32.981 29.5922C33.0974 29.7087 33.2719 29.8252 33.4464 29.8834C32.8065 30.466 32.2248 31.398 32.1085 33.0873C31.9922 34.4854 31.7013 35.0096 31.6432 35.0096L31.0615 35.8834H32.1085C33.7954 35.8834 35.1333 35.4174 36.0058 34.4854C36.5293 33.9611 36.8201 33.3203 37.0528 32.7378C37.3437 32.9708 37.7508 33.2038 38.2162 33.3203C38.3907 33.3786 38.6234 33.3786 38.856 33.3786C39.3214 33.3786 39.7286 33.2621 39.7867 33.2621L40.4266 33.0873L40.1357 32.4465C40.1357 32.3883 39.554 31.165 40.1357 29.4174C40.3684 28.6601 40.5429 27.9611 40.6011 27.4368C41.0083 27.6698 41.5899 27.8446 42.288 27.8446C43.9167 27.8446 44.6147 26.6213 44.6729 26.563L45.0219 25.9805L44.4402 25.7475C42.5206 24.932 42.0553 22.7766 41.9971 21.6116C42.1716 21.6698 42.3461 21.6698 42.5788 21.6698H42.6951ZM44.2657 26.2718C44.2657 26.2718 43.684 27.2621 42.4043 27.2621C40.8338 27.2621 40.1939 26.2718 40.1939 26.2718C40.1939 26.2718 40.3102 27.4951 39.7286 29.1844C39.0305 31.2232 39.7286 32.6796 39.7286 32.6796C39.7286 32.6796 39.3795 32.7961 38.9142 32.7961C38.7397 32.7961 38.5652 32.7961 38.4489 32.7378C37.111 32.4465 36.8201 31.2232 36.8201 31.2232C36.8201 31.2232 36.9365 35.2427 32.2248 35.2427H32.1667C32.1667 35.2427 32.5739 34.6601 32.6902 33.0291C32.9229 30.0582 34.9588 29.6504 34.9588 29.6504C34.9588 29.6504 33.8536 29.5339 33.3882 29.0679C32.632 28.4271 32.6902 27.6116 32.6902 27.6116C34.3189 27.6116 35.4241 27.0291 36.2385 26.097C37.111 25.0485 37.2855 23.9417 37.2855 23.9417C37.2855 23.9417 36.413 24.7572 34.6679 24.7572H34.2026C33.3882 24.699 32.8065 24.1747 32.8065 24.1747C34.6097 23.0096 35.8313 21.0291 34.7261 17.9999C33.8536 15.5533 31.7013 13.7475 29.5491 12.4077C28.9092 11.9999 28.5021 11.4757 28.5021 11.0679C28.5021 10.0776 29.9563 10.0194 30.538 9.32033C31.236 8.5048 30.7706 7.22324 30.189 6.46596C30.189 6.46596 30.3635 6.40771 30.7125 6.40771C31.3523 6.40771 32.3993 6.58247 33.2719 7.45625C34.4352 8.67955 33.9699 10.0194 33.9699 10.0194L34.2607 10.0776C34.4352 10.1359 34.6097 10.1359 34.8424 10.1359H34.9588C36.6456 10.1359 37.4018 8.33004 37.4018 8.33004C37.4018 8.33004 39.205 10.5436 36.5293 12.2912C36.0639 12.5825 35.8894 12.8737 35.9476 13.165L36.0058 13.3397L36.1803 13.398C38.0998 13.9223 39.0887 15.2621 40.3102 16.7766C42.1135 19.1067 44.6729 19.165 45.0219 19.165H45.08C45.08 19.165 44.4984 21.0291 42.7533 21.0291H42.6951C41.8808 21.0291 41.4736 20.6796 41.4736 20.6796C41.4736 20.6796 41.1246 24.9902 44.2657 26.2718ZM39.0305 13.2815C39.8449 13.6893 40.2521 14.2718 40.6592 14.7961C41.0664 15.2621 41.4154 15.7281 41.9971 15.9611C42.2298 16.0194 42.4043 16.0776 42.637 16.0776C43.5095 16.0776 44.382 15.5533 44.731 14.7961L45.08 14.0388L44.2657 13.9805C44.2075 13.9805 43.1605 13.864 41.9971 12.699C41.5318 12.2329 40.9501 11.9417 40.3102 11.9417C39.5541 11.9417 38.9724 12.3495 38.9142 12.3495L38.2162 12.8155L39.0305 13.2815ZM40.3684 12.4077C40.7756 12.4077 41.2409 12.5242 41.6481 12.9902C42.986 14.3883 44.2657 14.4465 44.2657 14.4465C44.033 14.9708 43.3932 15.3786 42.6951 15.3786C42.5206 15.3786 42.3461 15.3786 42.2298 15.3203C41.2991 15.0291 40.9501 13.5728 39.3214 12.699C39.2632 12.7572 39.7286 12.4077 40.3684 12.4077ZM39.3795 20.7378C38.9142 16.9514 36.1221 14.1553 33.0392 12.466C32.7484 12.2912 32.5157 12.1747 32.2248 12.0582C33.1555 12.233 34.6679 12.233 35.8313 11.1844C35.8313 11.1844 34.0281 12.5242 30.3635 11.3009C31.3523 11.9417 33.33 12.8737 35.1333 14.3883C39.6704 18.3495 36.413 22.2524 36.413 22.2524C38.0417 20.563 38.0998 18.7572 37.6345 17.2427C38.507 18.6407 39.0305 20.3883 38.9724 22.5436C38.856 25.5728 37.1691 28.2524 35.4241 30.3495C34.5516 31.398 34.3771 32.6213 34.3771 32.6213C34.3771 32.6213 34.7261 31.5145 35.7149 30.3495C37.5763 28.1359 39.205 25.864 39.4377 22.5436C39.6122 23.1262 40.4266 24.8155 41.7063 25.4562C41.7063 25.4562 40.0776 24.5242 39.3795 20.7378Z" fill="black"/>
<path d="M15.3566 34.9513C15.3566 34.9513 15.0076 34.427 14.9494 33.0289C14.8331 31.3396 14.1932 30.4076 13.5534 29.8251C13.7279 29.7668 13.9024 29.6503 14.0187 29.5338C14.9494 28.7183 14.8912 27.728 14.8912 27.6697L14.8331 27.1454H14.3095C12.9135 27.1454 11.9246 26.6794 11.1685 25.8056C10.994 25.5726 10.8195 25.3979 10.7031 25.1649C11.1103 25.2814 11.692 25.3979 12.2737 25.3979H12.7972C13.786 25.3396 14.4259 24.7571 14.4841 24.6406L15.0076 24.1163L14.3677 23.7085C12.9717 22.8348 11.5756 21.1454 12.6808 18.2328C13.3789 16.3105 15.0076 14.5629 17.6251 12.9318C18.4977 12.3493 19.0212 11.7085 19.0212 11.0678C19.0212 10.0775 18.2068 9.72796 17.6251 9.4367C17.3343 9.32019 17.0435 9.14544 16.869 8.97068C16.4036 8.44641 16.8108 7.39786 17.218 6.81534L17.7415 6.11631L16.869 5.94155C16.869 5.94155 16.6363 5.8833 16.2291 5.8833C15.5893 5.8833 14.3095 6.05806 13.2625 7.1066C12.39 7.98039 12.2737 8.97068 12.3318 9.5532H11.9828C10.7031 9.5532 10.0633 8.15515 10.0633 8.09689L9.71425 7.22311L9.13257 7.98039C9.0744 8.03864 8.20188 9.08718 8.43455 10.4852C8.55089 11.4173 9.13257 12.1746 10.1214 12.8153C10.2378 12.8736 10.2959 12.9318 10.3541 12.9901C8.49272 13.5726 7.50386 14.9124 6.39866 16.2522L6.22415 16.427C4.65361 18.6406 2.32688 18.6988 2.03604 18.6988H1.22168L1.45435 19.4561C1.45435 19.5726 2.21054 21.728 4.3046 21.728H4.42094C4.65361 21.728 4.82812 21.6697 5.00262 21.6697C4.88628 22.8348 4.47911 24.9901 2.55955 25.8056L1.97787 26.0386L2.32688 26.6212C2.32688 26.6212 3.0249 27.8445 4.65361 27.8445C5.35163 27.8445 5.93331 27.6697 6.34049 27.4367C6.39866 27.961 6.515 28.66 6.80584 29.4173C7.38752 31.1649 6.86401 32.4464 6.80584 32.4464L6.515 33.0872L7.15485 33.2619C7.21302 33.2619 7.62019 33.3784 8.08554 33.3784C8.31821 33.3784 8.49272 33.3785 8.72539 33.3202C9.24891 33.2037 9.59792 32.9707 9.88876 32.7377C10.0633 33.2619 10.3541 33.9027 10.9358 34.4852C11.8665 35.4173 13.1462 35.8833 14.8331 35.8833H15.8801L15.3566 34.9513ZM14.8331 35.2425C10.1214 35.2425 10.2378 31.2231 10.2378 31.2231C10.2378 31.2231 9.88876 32.4464 8.60906 32.7377C8.43455 32.7959 8.26005 32.7959 8.14371 32.7959C7.73653 32.7959 7.32935 32.6794 7.32935 32.6794C7.32935 32.6794 8.02737 31.2231 7.32935 29.1843C6.74767 27.495 6.86401 26.2717 6.86401 26.2717C6.86401 26.2717 6.22415 27.2037 4.65361 27.2619C3.37391 27.2619 2.79222 26.2717 2.79222 26.2717C5.93331 24.9901 5.64247 20.7377 5.64247 20.7377C5.64247 20.7377 5.23529 21.0289 4.42094 21.0872H4.36277C2.61772 21.0872 2.03604 19.2231 2.03604 19.2231H2.0942C2.38505 19.2231 5.00262 19.1649 6.80584 16.8348C8.02737 15.3202 8.95806 13.9804 10.9358 13.4561L11.1103 13.3979L11.1685 13.2231C11.2266 12.9318 10.994 12.6406 10.5868 12.3493C7.91104 10.6017 9.71425 8.38815 9.71425 8.38815C9.71425 8.38815 10.4704 10.194 12.1573 10.194H12.2737C12.4482 10.194 12.6808 10.194 12.8553 10.1357L13.1462 10.0775C13.1462 10.0775 12.6808 8.73767 13.8442 7.51437C14.7167 6.58233 15.8219 6.46583 16.4036 6.46583C16.6945 6.46583 16.9271 6.52408 16.9271 6.52408C16.3454 7.28136 15.9383 8.56291 16.5781 9.37845C17.1598 10.0775 18.614 10.0775 18.614 11.126C18.614 11.5338 18.2068 12.0581 17.5088 12.5241C15.3566 13.8639 13.2044 15.6697 12.3318 18.1163C11.2266 21.1454 12.4482 23.126 14.2514 24.2911C14.2514 24.2911 13.6697 24.8153 12.8553 24.8736H12.39C10.6449 24.8736 9.77242 24.0581 9.77242 24.0581C9.77242 24.0581 9.94693 25.1649 10.8195 26.2134C11.6338 27.1454 12.739 27.728 14.3677 27.728C14.3677 27.728 14.4259 28.4852 13.6697 29.1843C13.2044 29.592 12.0992 29.7668 12.0992 29.7668C12.0992 29.7668 14.135 30.1746 14.3677 33.1454C14.4841 34.7183 14.8912 35.2425 14.8331 35.2425ZM4.36277 16.0192C4.59544 16.0192 4.82812 15.961 5.00262 15.9027C5.5843 15.728 5.99148 15.2619 6.34049 14.7377C6.74767 14.2134 7.21302 13.6891 7.9692 13.2231L8.78356 12.8153L8.02737 12.2911C7.9692 12.2328 7.38752 11.8833 6.63133 11.8833C5.99148 11.8833 5.4098 12.1163 4.94445 12.6406C3.78109 13.8639 2.73406 13.9221 2.67589 13.9221L1.9197 13.9804L2.26871 14.7377C2.61772 15.4367 3.49024 16.0192 4.36277 16.0192ZM5.4098 13.0483C5.81698 12.5823 6.28232 12.4658 6.6895 12.4658C7.27118 12.4658 7.73653 12.8153 7.73653 12.8153C6.10782 13.6891 5.75881 15.0872 4.82811 15.4367C4.65361 15.495 4.53727 15.495 4.36277 15.495C3.66475 15.495 3.0249 15.0289 2.79222 14.5629C2.79222 14.5047 4.07193 14.3882 5.4098 13.0483ZM8.08554 22.5435C7.9692 20.3882 8.55089 18.6988 9.42341 17.2425C8.95807 18.6988 9.01623 20.5629 10.6449 22.2522C10.6449 22.2522 7.44569 18.4076 11.9246 14.3882C13.7279 12.8736 15.7056 11.9416 16.6945 11.3008C13.0298 12.5241 11.2266 11.1843 11.2266 11.1843C12.39 12.1746 13.9024 12.1746 14.8331 12.0581C14.6004 12.1746 14.3095 12.2911 14.0187 12.4658C10.9358 14.1551 8.14371 16.9513 7.67836 20.7377V20.6794C6.98034 24.4658 5.35163 25.3979 5.35163 25.3979C6.63133 24.7571 7.44569 23.126 7.62019 22.4852C7.85287 25.8056 9.42341 28.0775 11.343 30.2911C12.3318 31.4561 12.6808 32.5629 12.6808 32.5629C12.6808 32.5629 12.5063 31.2814 11.6338 30.2911C9.88876 28.2522 8.20188 25.6309 8.08554 22.5435Z" fill="black"/>
<path d="M22.4533 14.7965V15.5538C22.7441 15.2625 23.2095 15.3208 23.2095 15.3208V16.4275C23.2095 16.4275 23.2095 16.9518 22.9768 17.1848H24.0238C23.8493 16.9518 23.7912 16.4275 23.7912 16.4275V15.3208C23.7912 15.3208 24.3147 15.2625 24.5473 15.5538V14.7965H22.4533ZM21.9879 10.311C22.3369 10.6023 22.5696 10.6606 22.5696 10.6606L22.686 10.7188V10.0198L21.4062 9.49551C21.4062 9.43725 21.4062 9.84502 21.9879 10.311ZM25.0709 10.311C25.6525 9.84502 25.6525 9.43726 25.6525 9.43726L24.3728 9.96153V10.6606L24.4892 10.6023C24.4892 10.6023 24.7218 10.5441 25.0709 10.311Z" fill="black"/>
<path d="M27.3982 7.39797C27.3982 6.29117 25.595 5.35913 23.5591 5.35913C21.5232 5.35913 19.72 6.34942 19.72 7.39797L19.7782 7.68923L20.5925 12.3494L19.7782 12.8154L17.6259 13.9805C17.6259 13.9805 17.1606 14.2135 16.9279 14.3883C16.1136 14.9708 15.9391 15.7281 16.4044 16.0776C16.5207 15.4368 17.0443 14.7378 18.0331 14.7378C18.7311 14.7378 19.2547 15.0873 19.72 15.6698C19.8363 15.7863 19.9527 15.9611 20.0108 16.1358L20.3598 16.6601H14.9502C15.3574 17.4756 15.7064 18.2912 15.7064 19.2232V31.165C15.7064 34.0776 17.9168 35.4174 20.3598 35.4174C22.2212 35.4174 22.4539 35.3591 23.5009 36.3494C24.548 35.3009 24.7806 35.4174 26.642 35.4174C29.0269 35.4174 31.2955 34.0193 31.2955 31.165V19.165C31.2955 18.2329 31.6445 17.4174 32.0517 16.6019H26.642L26.991 16.0776C27.1074 15.9028 27.2237 15.7863 27.2819 15.6116C27.6891 15.0873 28.2707 14.6795 28.9688 14.6795C29.9576 14.6795 30.4811 15.3785 30.5975 16.0193C31.0628 15.6698 30.8883 14.8543 30.074 14.33C29.8413 14.1552 29.3759 13.9222 29.3759 13.9222L27.34 12.7572L26.5257 12.2912L27.34 7.63098L27.3982 7.39797ZM20.4762 7.92224L23.3264 8.91253V13.398L21.2324 12.2329L20.4762 7.92224ZM21.0579 17.3591C21.5232 17.8252 21.9886 18.1164 22.3957 18.2912C22.3376 18.5242 22.2794 18.9902 22.4539 19.4562C22.6284 19.8057 22.9193 20.097 23.3846 20.33C23.4428 20.796 23.7336 21.4951 24.548 21.7863L23.7336 22.6019L20.4762 22.5436C20.418 22.4853 20.3017 22.4271 20.2435 22.3106V22.2523L20.767 22.3106H20.8252C20.9415 22.3106 20.9997 22.2523 21.0579 22.1358C21.0579 22.0193 20.9997 21.9028 20.8834 21.9028L20.2435 21.7863L20.9415 19.2815L20.2435 17.8252L19.1383 18.9902L19.0801 21.6116L18.324 21.4951C18.2076 21.4951 18.0913 21.5533 18.0913 21.6698C18.0913 21.7863 18.1495 21.9028 18.2658 21.9028L18.5566 21.9611C18.4403 22.0193 18.3821 22.0776 18.3821 22.0776L18.2658 22.1358V22.1941C18.0913 22.9514 18.4985 23.5921 18.9056 23.9417V24.0582C18.9056 24.1747 18.9056 24.2912 18.9638 24.3494C19.022 24.4659 19.1383 24.5242 19.2546 24.5242H19.3128C19.4873 24.5242 19.6618 24.4077 19.72 24.1747H20.1853L24.4316 24.9319L24.4898 24.8737C24.8388 24.6407 26.1185 23.7086 26.5257 23.3591C26.642 23.4756 26.7584 23.5339 26.9329 23.6504C26.8165 24.1164 26.7584 24.8154 27.34 25.398H16.5207V19.165C16.5207 18.5824 16.3462 17.9417 16.1136 17.3591H21.0579ZM26.293 23.1261C25.8858 23.4174 24.7806 24.2329 24.3735 24.5242L20.4762 23.8252V23.7086C20.5344 23.5339 20.5925 23.2426 20.5925 22.8931L23.8499 22.9514L23.9081 22.8931C23.9663 22.8349 25.0133 21.8446 25.5368 21.262C25.6532 21.4368 25.8277 21.5533 26.0022 21.7281C26.0022 22.1358 26.0022 22.6601 26.293 23.1261ZM19.8363 22.4271C19.9527 22.6019 20.069 22.7184 20.1853 22.8349C20.1853 23.0096 20.1853 23.3009 20.1272 23.5339C20.1272 23.5921 20.1272 23.6504 20.069 23.7086V23.7669C19.8945 23.7669 19.5455 23.7669 19.3128 23.6504C19.022 23.5339 18.5566 22.9514 18.673 22.3688C18.7893 22.3106 19.1383 22.1358 19.371 22.1358C19.6037 22.1358 19.72 22.1941 19.8363 22.4271ZM19.4292 21.6698L19.4873 19.165L20.069 18.5824L20.418 19.3397L19.72 21.7281L19.4292 21.6698ZM26.293 34.6019H25.7113L26.1767 33.2038C26.2348 33.029 25.8858 32.7378 25.7113 32.5048C25.944 32.6213 26.5257 32.9708 26.8165 33.0873C26.7584 33.1455 26.293 34.6019 26.293 34.6019ZM27.7472 32.9708L27.4564 34.5436C27.2819 34.5436 27.0492 34.6019 26.8747 34.6019L27.1655 33.0873C27.2819 32.6213 26.0603 32.5048 25.4787 31.631C25.1878 31.9805 24.6643 32.0387 24.0826 32.0387C23.5591 32.0387 23.0938 31.9805 22.8029 31.9222H22.5702C22.3957 31.9222 22.2212 31.9805 22.1049 32.1553L21.9886 32.33L20.3598 31.864L19.9527 32.563C19.8945 32.6795 19.8945 32.7378 20.0108 32.8543L20.1272 32.9708C20.069 33.2038 19.72 33.5533 19.72 33.5533L19.4873 33.262C19.3128 33.029 19.3128 32.6213 19.5455 32.2718L20.1853 31.165L21.5814 31.3397L21.3487 30.8737C21.0579 30.2329 21.5232 29.4174 21.5232 28.8931C21.5232 29.0096 21.3487 29.0679 21.2324 29.0679H20.7089L20.3598 29.3009L20.069 29.0096C20.0108 28.9514 20.0108 28.8349 20.1272 28.7766L20.8252 28.0193L20.0108 27.0873L21.1742 27.6698L21.5232 27.262C21.6396 27.3786 21.5814 27.6116 21.5814 27.6116C21.9304 27.6116 22.9193 28.1941 22.9774 29.4756V29.6504C23.0356 29.7669 23.2683 29.9999 23.5009 29.9999L25.0715 30.1747C25.246 30.1747 25.595 29.9999 26.0022 29.9999C26.2348 29.9999 26.5257 30.0582 26.8165 30.2329C26.8165 30.2329 26.9329 30.1164 27.1655 30.1164H27.2237C27.9217 30.1164 28.2126 30.7572 28.6197 31.2815C28.9106 31.6892 29.2596 32.2718 29.2596 32.2718C29.1433 32.4465 28.9688 32.5048 28.7943 32.5048H28.6197C27.8636 32.3883 27.7472 30.8154 27.34 30.6989H27.2819C27.1655 30.6989 27.1074 30.8154 27.1074 30.8154C27.2819 31.3397 27.1655 31.5727 27.3982 31.9805C27.5727 32.2718 27.8636 32.5048 27.9799 32.6795C27.8054 32.563 27.7472 32.796 27.7472 32.9708ZM19.2546 31.5145L19.3128 31.6892C19.2547 31.864 18.7311 32.097 18.7311 32.097L18.6148 31.8057C18.4985 31.5145 18.4985 31.0485 18.9056 30.7572L19.7782 30.2329L20.7089 30.4077C20.7089 30.6989 20.8834 30.9319 20.8834 30.9319L19.8945 30.7572L19.3128 31.165C19.2547 31.2232 19.2546 31.398 19.2546 31.5145ZM27.8636 34.4853L28.1544 33.0873C28.1544 33.029 28.2126 32.9125 28.2126 32.8543C28.2707 32.9125 28.3871 32.9125 28.4452 32.9125H28.7361C29.1433 32.9125 29.3759 32.6795 29.5504 32.5048L29.7831 32.2718L29.6086 31.9805C29.6086 31.9805 29.2014 31.3397 28.9106 30.9319C28.8524 30.8737 28.7943 30.7572 28.7361 30.6989C28.3871 30.2329 27.9799 29.5921 27.1655 29.5921H27.1074C26.991 29.5921 26.8747 29.6504 26.7584 29.6504C26.5257 29.5339 26.2348 29.4756 25.944 29.4756C25.595 29.4756 25.3042 29.5921 25.1296 29.6504C25.0715 29.7086 25.0133 29.7086 24.9551 29.7086L23.4428 29.5339C23.4428 29.5339 23.3846 29.4756 23.2683 29.4174L23.6173 29.3009C23.5009 28.1941 22.4539 27.4951 21.8722 27.262C21.8722 27.1455 21.8141 27.029 21.6977 26.9708L21.3487 26.6795L21.0579 27.029L20.9415 27.1455L18.7893 26.2718L20.1853 28.0193L19.6618 28.8349C19.4873 29.0679 19.6618 29.2426 19.6618 29.2426L20.2435 29.6504L20.8252 29.4174H20.8834C20.8834 29.5339 20.8252 29.8834 20.767 29.9417L19.7782 29.8252L18.673 30.4077C18.0913 30.8154 18.0331 31.5145 18.2658 31.9222L18.3821 32.1553L18.5566 32.5048L18.9056 32.33C18.7893 32.7378 18.8475 33.2038 19.0801 33.4368L19.3128 33.7281L19.6037 34.1358L19.9527 33.7863C20.069 33.6698 20.3598 33.3203 20.4762 33.029L20.5344 32.796L20.3598 32.6213V32.563L20.5344 32.2718L21.8722 32.563L22.1631 32.6213L22.3376 32.33L22.3957 32.2135C22.3957 32.1553 22.3957 32.1553 22.4539 32.1553H22.6284C23.1519 32.2718 23.6173 32.2718 24.0245 32.2718C24.4316 32.2718 24.6643 32.2718 24.9551 32.1553C24.9551 32.1553 25.6532 32.9708 25.7113 33.029L25.246 34.3688V34.4271C24.4316 34.4853 24.0245 34.6601 23.5009 35.1844C22.8029 34.4853 22.2794 34.4271 20.3598 34.4271C18.0913 34.4271 16.5207 33.0873 16.5207 30.9319V25.6892H30.4811V30.9319C30.4811 32.8543 29.4923 34.0776 27.8636 34.4853ZM30.8883 17.3591C30.6556 17.9417 30.4811 18.5242 30.4811 19.165V23.0679C29.6668 22.9514 29.5504 22.0193 29.5504 22.0193V21.8446H29.3759C29.0269 21.7863 28.7943 21.6698 28.5616 21.4951C28.1544 21.0873 28.1544 20.4465 28.1544 20.4465C28.1544 20.5048 27.6891 21.0873 28.2126 21.7863C28.4452 22.0776 28.7361 22.2523 29.1433 22.3106C29.2596 22.7766 29.6086 23.4756 30.4811 23.5921V25.5145H28.0381C26.9329 24.8737 27.3982 23.8252 27.3982 23.7669L27.5145 23.5339L27.34 23.3591C26.1185 22.8931 26.4675 21.7281 26.4675 21.6698L26.5257 21.4951L26.3512 21.4368C25.3623 20.9708 25.4787 19.7475 25.4787 19.6892C25.1878 19.9222 25.0715 20.4465 25.246 20.9708C25.1297 21.0873 24.9551 21.262 24.8388 21.4368C23.8499 21.1455 23.8499 20.1552 23.8499 20.1552V19.9805L23.7336 19.9222C23.3264 19.7475 23.0356 19.5727 22.9193 19.2232C22.7447 18.8737 22.8029 18.5242 22.8611 18.3494C22.9774 18.3494 23.0938 18.4077 23.2101 18.4077H23.9081C24.548 18.3494 25.246 18.0582 26.0022 17.3009H30.8883V17.3591ZM27.1074 13.398L28.0381 13.9805L28.2707 14.097C27.7472 14.2718 27.34 14.5048 26.991 14.8543L26.9329 14.9125C26.8747 14.9708 26.7584 15.0873 26.7002 15.2038C26.7002 15.2038 26.7002 15.262 26.642 15.262C26.5839 15.3785 26.5257 15.4368 26.4094 15.5533C26.4094 15.5533 26.4094 15.6116 26.3512 15.6116C26.293 15.7281 26.1767 15.8446 26.1185 15.9611C25.4205 17.1261 24.3735 17.8252 23.3846 17.8252C22.3957 17.8252 21.3487 17.1261 20.6507 15.9611C20.5925 15.8446 20.4762 15.7281 20.418 15.6116L20.3598 15.5533C20.3017 15.4368 20.2435 15.3785 20.1853 15.262L20.1272 15.2038C20.069 15.0873 19.9527 15.029 19.8945 14.9125L19.8363 14.8543C19.4873 14.5048 19.0801 14.2135 18.5566 14.097L18.7893 13.9805L19.72 13.398L20.7089 12.8154L23.3264 14.2718L25.944 12.8154L27.1074 13.398ZM25.8277 12.2329L23.7336 13.3397V8.85428L26.5839 7.86399L25.8277 12.2329ZM23.5009 8.38826L20.418 7.16496C20.7089 6.52418 21.8722 5.99991 23.5009 5.99991C25.1297 5.99991 26.3512 6.52418 26.5839 7.16496L23.5009 8.38826Z" fill="black"/>
</svg>
