<svg width="166" height="26" viewBox="0 0 166 26" fill="none" xmlns="http://www.w3.org/2000/svg">
<path d="M39.3872 23.2995V2.44864H48.3713C49.9199 2.44864 51.2726 2.73318 52.4295 3.30226C53.5956 3.86202 54.5006 4.67366 55.1443 5.73719C55.7973 6.7914 56.1238 8.05551 56.1238 9.52952C56.1238 11.0222 55.7927 12.2816 55.1303 13.3079C54.4679 14.3341 53.5396 15.1084 52.3455 15.6308C51.1514 16.1533 49.7613 16.4145 48.1753 16.4145H42.8017V12.0204H47.0278C47.6995 12.0204 48.2733 11.9365 48.7491 11.7685C49.2249 11.6006 49.5887 11.3347 49.8406 10.9709C50.0925 10.607 50.2184 10.1266 50.2184 9.52952C50.2184 8.93245 50.0925 8.44733 49.8406 8.07416C49.5887 7.70099 49.2249 7.42578 48.7491 7.24853C48.2733 7.07127 47.6995 6.98264 47.0278 6.98264H45.0407V23.2995H39.3872ZM50.6662 23.2995L45.5725 13.7277H51.5898L56.8235 23.2995H50.6662Z" fill="black"/>
<path d="M30.8592 2.44864H36.5127V15.7988C36.5127 17.3847 36.1349 18.7608 35.3792 19.927C34.6235 21.0838 33.5693 21.9794 32.2166 22.6138C30.8638 23.2388 29.2919 23.5514 27.5007 23.5514C25.7094 23.5514 24.1375 23.2388 22.7847 22.6138C21.4413 21.9794 20.3918 21.0838 19.6361 19.927C18.8898 18.7608 18.5166 17.3847 18.5166 15.7988V2.44864H24.1701V15.323C24.1701 15.976 24.3147 16.5544 24.6039 17.0582C24.8931 17.5527 25.285 17.9445 25.7794 18.2337C26.2832 18.5136 26.8569 18.6535 27.5007 18.6535C28.1537 18.6535 28.7321 18.5136 29.2359 18.2337C29.7397 17.9445 30.1362 17.5527 30.4254 17.0582C30.7146 16.5544 30.8592 15.976 30.8592 15.323V2.44864Z" fill="black"/>
<path d="M0.5 23.2995V2.44864H15.5294V7.01063H6.15351V10.5371H14.7457V14.9871H6.15351V18.7375H15.4734V23.2995H0.5Z" fill="black"/>
<path d="M81.3178 13C81.3178 18.9355 76.5061 23.7473 70.5705 23.7473C64.635 23.7473 59.8232 18.9355 59.8232 13C59.8232 7.06443 64.635 2.25272 70.5705 2.25272C76.5061 2.25272 81.3178 7.06443 81.3178 13Z" fill="#FEED02"/>
<path d="M148.778 23.4254V2.57458H157.762C159.311 2.57458 160.663 2.88245 161.82 3.49818C162.986 4.10458 163.891 4.96287 164.535 6.07305C165.188 7.18322 165.514 8.47999 165.514 9.96334C165.514 11.456 165.183 12.7481 164.521 13.8396C163.859 14.9218 162.93 15.7615 161.736 16.3585C160.542 16.9463 159.152 17.2401 157.566 17.2401H152.192V12.8461H156.418C157.09 12.8461 157.664 12.7295 158.14 12.4962C158.616 12.2537 158.979 11.9178 159.231 11.4887C159.483 11.0595 159.609 10.5511 159.609 9.96334C159.609 9.35694 159.483 8.84383 159.231 8.42401C158.979 7.99487 158.616 7.66834 158.14 7.44444C157.664 7.22054 157.09 7.10859 156.418 7.10859H154.431V23.4254H148.778Z" fill="black"/>
<path d="M135.855 23.7053C133.961 23.7053 132.245 23.2948 130.705 22.4738C129.175 21.6529 127.963 20.4494 127.067 18.8634C126.171 17.2681 125.724 15.3183 125.724 13.014C125.724 10.691 126.171 8.73188 127.067 7.13658C127.963 5.54128 129.175 4.33781 130.705 3.52617C132.245 2.70519 133.961 2.29471 135.855 2.29471C137.749 2.29471 139.461 2.70519 140.991 3.52617C142.521 4.33781 143.734 5.54128 144.629 7.13658C145.534 8.73188 145.987 10.691 145.987 13.014C145.987 15.3276 145.534 17.2821 144.629 18.8774C143.734 20.4634 142.521 21.6669 140.991 22.4878C139.461 23.2995 137.749 23.7053 135.855 23.7053ZM135.855 18.7795C136.797 18.7795 137.586 18.5602 138.22 18.1217C138.864 17.6739 139.349 17.0209 139.675 16.1626C140.002 15.3043 140.165 14.2548 140.165 13.014C140.165 11.7639 140.002 10.7097 139.675 9.85138C139.349 8.98377 138.864 8.33072 138.22 7.89225C137.586 7.44444 136.797 7.22054 135.855 7.22054C134.922 7.22054 134.134 7.44444 133.49 7.89225C132.856 8.33072 132.371 8.98377 132.035 9.85138C131.708 10.7097 131.545 11.7639 131.545 13.014C131.545 14.2548 131.708 15.3043 132.035 16.1626C132.371 17.0209 132.856 17.6739 133.49 18.1217C134.134 18.5602 134.922 18.7795 135.855 18.7795Z" fill="black"/>
<path d="M104.125 23.4254V2.57458H109.779V10.719H117.28V2.57458H122.933V23.4254H117.28V15.281H109.779V23.4254H104.125Z" fill="black"/>
<path d="M93.3299 23.6773C91.52 23.6773 89.9387 23.4114 88.586 22.8797C87.2426 22.3386 86.1977 21.5083 85.4514 20.3887C84.705 19.2692 84.3272 17.8372 84.3179 16.0926H89.6915C89.7288 16.727 89.8874 17.2635 90.1673 17.7019C90.4565 18.1404 90.8577 18.4716 91.3708 18.6955C91.8932 18.9194 92.5183 19.0313 93.2459 19.0313C93.8523 19.0313 94.3608 18.9567 94.7713 18.8074C95.1818 18.6582 95.4896 18.4529 95.6949 18.1917C95.9094 17.9212 96.0167 17.6133 96.0167 17.2681C96.0167 16.9509 95.9141 16.6757 95.7089 16.4425C95.5129 16.1999 95.1864 15.9807 94.7293 15.7848C94.2722 15.5889 93.6564 15.4116 92.8821 15.253L90.783 14.8052C88.9452 14.4134 87.4945 13.7463 86.4309 12.8041C85.3767 11.8525 84.8496 10.5604 84.8496 8.92779C84.8496 7.60304 85.2088 6.44622 85.9272 5.45732C86.6455 4.45909 87.6344 3.68476 88.8939 3.13434C90.1626 2.57459 91.6227 2.29471 93.2739 2.29471C94.9625 2.29471 96.4179 2.57925 97.64 3.14833C98.8715 3.70809 99.8184 4.50107 100.481 5.52729C101.152 6.54417 101.493 7.73365 101.502 9.09572H96.0727C96.0261 8.41468 95.7742 7.88758 95.317 7.51441C94.8692 7.13191 94.1882 6.94066 93.2739 6.94066C92.6955 6.94066 92.2197 7.01063 91.8466 7.15057C91.4734 7.28118 91.1982 7.46777 91.0209 7.71033C90.8437 7.95289 90.755 8.2281 90.755 8.53596C90.755 8.86249 90.8483 9.15169 91.0349 9.40358C91.2308 9.64614 91.534 9.86071 91.9445 10.0473C92.3643 10.2246 92.9008 10.3831 93.5538 10.5231L95.2611 10.8869C96.4086 11.1295 97.3928 11.4513 98.2138 11.8525C99.0441 12.2537 99.7204 12.7248 100.243 13.2659C100.775 13.7976 101.162 14.3994 101.404 15.0711C101.656 15.7428 101.782 16.4751 101.782 17.2681C101.782 18.6395 101.442 19.8057 100.761 20.7666C100.089 21.7182 99.1234 22.4412 97.8639 22.9356C96.6045 23.4301 95.0931 23.6773 93.3299 23.6773Z" fill="black"/>
</svg>
