<svg width="140" height="20" viewBox="0 0 140 20" fill="none" xmlns="http://www.w3.org/2000/svg">
<path d="M0.84375 19V1.53906H13.4297V5.35938H5.57812V8.3125H12.7734V12.0391H5.57812V15.1797H13.3828V19H0.84375ZM26.2669 1.53906H31.0013V12.7188C31.0013 14.0469 30.6848 15.1992 30.052 16.1758C29.4192 17.1445 28.5364 17.8945 27.4036 18.4258C26.2708 18.9492 24.9544 19.2109 23.4544 19.2109C21.9544 19.2109 20.638 18.9492 19.5052 18.4258C18.3802 17.8945 17.5013 17.1445 16.8684 16.1758C16.2434 15.1992 15.9309 14.0469 15.9309 12.7188V1.53906H20.6653V12.3203C20.6653 12.8672 20.7864 13.3516 21.0286 13.7734C21.2708 14.1875 21.5989 14.5156 22.013 14.7578C22.4348 14.9922 22.9153 15.1094 23.4544 15.1094C24.0013 15.1094 24.4856 14.9922 24.9075 14.7578C25.3294 14.5156 25.6614 14.1875 25.9036 13.7734C26.1458 13.3516 26.2669 12.8672 26.2669 12.3203V1.53906ZM33.4087 19V1.53906H40.9322C42.2291 1.53906 43.3619 1.77734 44.3306 2.25391C45.3072 2.72266 46.065 3.40234 46.6041 4.29297C47.1509 5.17578 47.4244 6.23438 47.4244 7.46875C47.4244 8.71875 47.147 9.77344 46.5923 10.6328C46.0377 11.4922 45.2603 12.1406 44.2603 12.5781C43.2603 13.0156 42.0962 13.2344 40.7681 13.2344H36.2681V9.55469H39.8072C40.3697 9.55469 40.8502 9.48438 41.2486 9.34375C41.647 9.20312 41.9517 8.98047 42.1627 8.67578C42.3736 8.37109 42.4791 7.96875 42.4791 7.46875C42.4791 6.96875 42.3736 6.5625 42.1627 6.25C41.9517 5.9375 41.647 5.70703 41.2486 5.55859C40.8502 5.41016 40.3697 5.33594 39.8072 5.33594H38.1431V19H33.4087ZM42.8541 19L38.5884 10.9844H43.6275L48.0103 19H42.8541Z" fill="white"/>
<circle cx="60" cy="10" r="9" fill="#FEED02"/>
<path d="M78.9453 19.2109C77.4297 19.2109 76.1055 18.9883 74.9727 18.543C73.8477 18.0898 72.9727 17.3945 72.3477 16.457C71.7227 15.5195 71.4062 14.3203 71.3984 12.8594H75.8984C75.9297 13.3906 76.0625 13.8398 76.2969 14.207C76.5391 14.5742 76.875 14.8516 77.3047 15.0391C77.7422 15.2266 78.2656 15.3203 78.875 15.3203C79.3828 15.3203 79.8086 15.2578 80.1523 15.1328C80.4961 15.0078 80.7539 14.8359 80.9258 14.6172C81.1055 14.3906 81.1953 14.1328 81.1953 13.8438C81.1953 13.5781 81.1094 13.3477 80.9375 13.1523C80.7734 12.9492 80.5 12.7656 80.1172 12.6016C79.7344 12.4375 79.2188 12.2891 78.5703 12.1562L76.8125 11.7812C75.2734 11.4531 74.0586 10.8945 73.168 10.1055C72.2852 9.30859 71.8438 8.22656 71.8438 6.85938C71.8438 5.75 72.1445 4.78125 72.7461 3.95312C73.3477 3.11719 74.1758 2.46875 75.2305 2.00781C76.293 1.53906 77.5156 1.30469 78.8984 1.30469C80.3125 1.30469 81.5312 1.54297 82.5547 2.01953C83.5859 2.48828 84.3789 3.15234 84.9336 4.01172C85.4961 4.86328 85.7812 5.85938 85.7891 7H81.2422C81.2031 6.42969 80.9922 5.98828 80.6094 5.67578C80.2344 5.35547 79.6641 5.19531 78.8984 5.19531C78.4141 5.19531 78.0156 5.25391 77.7031 5.37109C77.3906 5.48047 77.1602 5.63672 77.0117 5.83984C76.8633 6.04297 76.7891 6.27344 76.7891 6.53125C76.7891 6.80469 76.8672 7.04688 77.0234 7.25781C77.1875 7.46094 77.4414 7.64062 77.7852 7.79688C78.1367 7.94531 78.5859 8.07812 79.1328 8.19531L80.5625 8.5C81.5234 8.70312 82.3477 8.97266 83.0352 9.30859C83.7305 9.64453 84.2969 10.0391 84.7344 10.4922C85.1797 10.9375 85.5039 11.4414 85.707 12.0039C85.918 12.5664 86.0234 13.1797 86.0234 13.8438C86.0234 14.9922 85.7383 15.9688 85.168 16.7734C84.6055 17.5703 83.7969 18.1758 82.7422 18.5898C81.6875 19.0039 80.4219 19.2109 78.9453 19.2109ZM87.9856 19V1.53906H92.72V8.35938H99.0012V1.53906H103.736V19H99.0012V12.1797H92.72V19H87.9856ZM114.557 19.2344C112.971 19.2344 111.534 18.8906 110.245 18.2031C108.963 17.5156 107.948 16.5078 107.198 15.1797C106.448 13.8438 106.073 12.2109 106.073 10.2812C106.073 8.33594 106.448 6.69531 107.198 5.35938C107.948 4.02344 108.963 3.01562 110.245 2.33594C111.534 1.64844 112.971 1.30469 114.557 1.30469C116.143 1.30469 117.577 1.64844 118.858 2.33594C120.139 3.01562 121.155 4.02344 121.905 5.35938C122.663 6.69531 123.042 8.33594 123.042 10.2812C123.042 12.2188 122.663 13.8555 121.905 15.1914C121.155 16.5195 120.139 17.5273 118.858 18.2148C117.577 18.8945 116.143 19.2344 114.557 19.2344ZM114.557 15.1094C115.346 15.1094 116.006 14.9258 116.538 14.5586C117.077 14.1836 117.483 13.6367 117.756 12.918C118.03 12.1992 118.167 11.3203 118.167 10.2812C118.167 9.23438 118.03 8.35156 117.756 7.63281C117.483 6.90625 117.077 6.35937 116.538 5.99219C116.006 5.61719 115.346 5.42969 114.557 5.42969C113.776 5.42969 113.116 5.61719 112.577 5.99219C112.045 6.35937 111.639 6.90625 111.358 7.63281C111.085 8.35156 110.948 9.23438 110.948 10.2812C110.948 11.3203 111.085 12.1992 111.358 12.918C111.639 13.6367 112.045 14.1836 112.577 14.5586C113.116 14.9258 113.776 15.1094 114.557 15.1094ZM125.379 19V1.53906H132.902C134.199 1.53906 135.332 1.79688 136.301 2.3125C137.277 2.82031 138.035 3.53906 138.574 4.46875C139.121 5.39844 139.394 6.48438 139.394 7.72656C139.394 8.97656 139.117 10.0586 138.562 10.9727C138.008 11.8789 137.23 12.582 136.23 13.082C135.23 13.5742 134.066 13.8203 132.738 13.8203H128.238V10.1406H131.777C132.34 10.1406 132.82 10.043 133.219 9.84766C133.617 9.64453 133.922 9.36328 134.133 9.00391C134.344 8.64453 134.449 8.21875 134.449 7.72656C134.449 7.21875 134.344 6.78906 134.133 6.4375C133.922 6.07812 133.617 5.80469 133.219 5.61719C132.82 5.42969 132.34 5.33594 131.777 5.33594H130.113V19H125.379Z" fill="white"/>
</svg>
