<svg xmlns="http://www.w3.org/2000/svg" xmlns:xlink="http://www.w3.org/1999/xlink"><symbol id="sprite-cart" viewBox="0 0 20 20"><path d="M15.411 17.5V19H4.588v-1.5zm.5-.5V6.176a.5.5 0 0 0-.5-.5H4.588a.5.5 0 0 0-.5.5V17a.5.5 0 0 0 .5.5V19a2 2 0 0 1-2-2V6.176a2 2 0 0 1 2-2H15.41a2 2 0 0 1 2 2V17a2 2 0 0 1-2 2v-1.5a.5.5 0 0 0 .5-.5"/><path d="M12.426 4.177a2.426 2.426 0 1 0-4.853 0v3.176h-1.5V4.177a3.927 3.927 0 0 1 7.853 0v3.176h-1.5z"/></symbol><use xlink:href="#sprite-cart" width="20" height="20" y="0"/><view id="sprite-cart-view" viewBox="0 0 20 20"/><symbol id="sprite-close" viewBox="0 0 24 24"><path fill-rule="evenodd" clip-rule="evenodd" d="M7.227 7.227a.75.75 0 0 1 1.061 0l3.713 3.712 3.712-3.712a.75.75 0 1 1 1.06 1.06L13.061 12l3.712 3.712a.75.75 0 1 1-1.06 1.06L12 13.062l-3.713 3.712a.75.75 0 1 1-1.06-1.06L10.94 12 7.227 8.288a.75.75 0 0 1 0-1.061"/></symbol><use xlink:href="#sprite-close" width="24" height="24" y="20"/><view id="sprite-close-view" viewBox="0 20 24 24"/><symbol id="sprite-copy" viewBox="0 0 20 20"><g opacity="0.3"><path d="M16.75 8.334a2.584 2.584 0 0 0-2.583-2.584h-5a2.584 2.584 0 0 0-2.584 2.584V15a2.584 2.584 0 0 0 2.584 2.584h1.952q.323-.002.631-.082v-.835a4.083 4.083 0 0 1 4.083-4.083h.836q.08-.308.081-.631zm-1.07 5.757a2.58 2.58 0 0 0-2.422 2.423zm2.57-2.138c0 1.083-.43 2.12-1.196 2.887l-3.047 3.047a4.08 4.08 0 0 1-2.888 1.197H9.167a4.084 4.084 0 0 1-4.024-3.394 4.08 4.08 0 0 1-3.393-4.023V5A4.083 4.083 0 0 1 5.833.917h5a4.08 4.08 0 0 1 4.023 3.392 4.084 4.084 0 0 1 3.394 4.025zm-15-.286c0 1.165.772 2.149 1.833 2.47V8.334A4.084 4.084 0 0 1 9.167 4.25h4.139a2.585 2.585 0 0 0-2.473-1.833h-5A2.583 2.583 0 0 0 3.25 5z"/></g></symbol><use xlink:href="#sprite-copy" width="20" height="20" y="44"/><view id="sprite-copy-view" viewBox="0 44 20 20"/><symbol id="sprite-download" viewBox="0 0 24 24"><path d="M13 12h3l-4 4-4-4h3V8h2zm2-8H5v16h14V8h-4zM3 2.992C3 2.444 3.447 2 3.999 2H16l5 5v13.993A1 1 0 0 1 20.007 22H3.993A1 1 0 0 1 3 21.008z"/></symbol><use xlink:href="#sprite-download" width="24" height="24" y="64"/><view id="sprite-download-view" viewBox="0 64 24 24"/><symbol id="sprite-download2" viewBox="0 0 16 16"><path d="M4.667 12.667v-4h6.666v4h1.334V5.219L10.78 3.333H3.333v9.334zM2.667 2h8.666L14 4.667v8.666a.666.666 0 0 1-.667.667H2.667A.666.666 0 0 1 2 13.333V2.667A.667.667 0 0 1 2.667 2M6 10v2.667h4V10z"/></symbol><use xlink:href="#sprite-download2" width="16" height="16" y="88"/><view id="sprite-download2-view" viewBox="0 88 16 16"/><symbol id="sprite-info" viewBox="0 0 24 24"><path d="M12 22C6.477 22 2 17.523 2 12S6.477 2 12 2s10 4.477 10 10-4.477 10-10 10m0-2a8 8 0 1 0 0-16.001A8 8 0 0 0 12 20m-1-5h2v2h-2zm0-8h2v6h-2z"/></symbol><use xlink:href="#sprite-info" width="24" height="24" y="104"/><view id="sprite-info-view" viewBox="0 104 24 24"/><symbol id="sprite-search" viewBox="0 0 20 20"><g><path d="M16.137 16.136a.75.75 0 0 1 1.06 0l1.667 1.667a.75.75 0 0 1-1.06 1.061l-1.667-1.667a.75.75 0 0 1 0-1.06m.613-6.552a7.167 7.167 0 1 0-14.334 0 7.167 7.167 0 0 0 14.334 0m1.5 0A8.667 8.667 0 1 1 .917 9.583a8.667 8.667 0 0 1 17.333 0"/></g></symbol><use xlink:href="#sprite-search" width="20" height="20" y="128"/><view id="sprite-search-view" viewBox="0 128 20 20"/><symbol id="sprite-select" viewBox="0 0 18 18"><path fill-rule="evenodd" clip-rule="evenodd" d="M4.81 7.149a.56.56 0 0 1 .791-.088L9 9.78l3.399-2.72a.563.563 0 0 1 .702.88l-3.75 3a.56.56 0 0 1-.702 0l-3.75-3a.56.56 0 0 1-.088-.791"/></symbol><use xlink:href="#sprite-select" width="18" height="18" y="148"/><view id="sprite-select-view" viewBox="0 148 18 18"/><symbol id="sprite-swiper-arrow" viewBox="0 0 36 36"><path d="m19.758 18-7.425-7.425 2.121-2.121L24 18l-9.546 9.546-2.121-2.121z"/></symbol><use xlink:href="#sprite-swiper-arrow" width="36" height="36" y="166"/><view id="sprite-swiper-arrow-view" viewBox="0 166 36 36"/><symbol id="sprite-swiper-arrow2" viewBox="0 0 28 28"><path d="M11.47 10.53a.75.75 0 1 1 1.06-1.06l4 4a.75.75 0 0 1 0 1.06l-4 4a.75.75 0 1 1-1.06-1.06L14.94 14z"/></symbol><use xlink:href="#sprite-swiper-arrow2" width="28" height="28" y="202"/><view id="sprite-swiper-arrow2-view" viewBox="0 202 28 28"/><symbol id="sprite-text-link" viewBox="0 0 13 26"><path d="M11.47.47a.75.75 0 1 1 1.06 1.06l-10 10a.75.75 0 1 1-1.06-1.06z"/><path d="M11.25 11V1.75H2a.75.75 0 0 1 0-1.5h10a.75.75 0 0 1 .75.75v10a.75.75 0 0 1-1.5 0"/></symbol><use xlink:href="#sprite-text-link" width="13" height="26" y="230"/><view id="sprite-text-link-view" viewBox="0 230 13 26"/><symbol id="sprite-text-link2" viewBox="0 0 24 24"><path fill-rule="evenodd" clip-rule="evenodd" d="M18.53 12.53a.75.75 0 0 0 0-1.06l-4-4a.75.75 0 1 0-1.06 1.06l2.72 2.72H6a.75.75 0 0 0 0 1.5h10.19l-2.72 2.72a.75.75 0 0 0 1.06 1.06z"/></symbol><use xlink:href="#sprite-text-link2" width="24" height="24" y="256"/><view id="sprite-text-link2-view" viewBox="0 256 24 24"/><symbol id="sprite-wishlist" viewBox="0 0 20 20"><path d="M10.089 3.407c2.057-2.21 5.416-2.21 7.473 0 2.029 2.18 2.029 5.693 0 7.872l-5.738 6.164a2.467 2.467 0 0 1-3.648 0L2.438 11.28C.41 9.1.41 5.587 2.438 3.407c2.058-2.21 5.417-2.21 7.474 0l.088.095zm6.375 1.023c-1.464-1.573-3.814-1.573-5.278 0l-.637.684a.75.75 0 0 1-1.098 0l-.638-.684C7.35 2.857 5 2.857 3.536 4.43c-1.492 1.603-1.492 4.223 0 5.827l5.738 6.165a.967.967 0 0 0 1.453 0l5.737-6.165c1.492-1.604 1.492-4.224 0-5.827"/></symbol><use xlink:href="#sprite-wishlist" width="20" height="20" y="280"/><view id="sprite-wishlist-view" viewBox="0 280 20 20"/></svg>