<svg width="49" height="49" viewBox="0 0 49 49" fill="none" xmlns="http://www.w3.org/2000/svg">
<rect x="26.5" y="6.5" width="18" height="18" rx="2" stroke="white" stroke-width="2"/>
<path d="M37.5 12.5L33.5 12.5" stroke="white" stroke-width="2" stroke-linecap="round" stroke-linejoin="round"/>
<path d="M4.5 18.5H8.5L22.6814 24.7044C23.688 25.1447 24.1509 26.3147 23.7181 27.3245L22.2878 30.6617C21.8527 31.677 20.677 32.1473 19.6617 31.7122L14.5 29.5" stroke="white" stroke-width="2" stroke-linecap="round" stroke-linejoin="round"/>
<path d="M4.94721 35.6056C4.45324 35.3586 3.85256 35.5588 3.60557 36.0528C3.35858 36.5468 3.55881 37.1474 4.05279 37.3944L4.5 36.5L4.94721 35.6056ZM22.9472 29.6056L22.0528 29.1584L21.1584 30.9472L22.0528 31.3944L22.5 30.5L22.9472 29.6056ZM29.2331 33.8666L29.6803 32.9721L29.2331 33.8666ZM31.9164 34.5V35.5H38.5V34.5V33.5H31.9164V34.5ZM40.5 36.5H39.5V40.5H40.5H41.5V36.5H40.5ZM38.5 42.5V41.5H18.3885V42.5V43.5H38.5V42.5ZM14.8108 41.6554L15.258 40.761L4.94721 35.6056L4.5 36.5L4.05279 37.3944L14.3636 42.5498L14.8108 41.6554ZM29.2331 33.8666L29.6803 32.9721L22.9472 29.6056L22.5 30.5L22.0528 31.3944L28.7859 34.761L29.2331 33.8666ZM18.3885 42.5V41.5C17.3018 41.5 16.23 41.247 15.258 40.761L14.8108 41.6554L14.3636 42.5498C15.6133 43.1747 16.9913 43.5 18.3885 43.5V42.5ZM40.5 40.5H39.5C39.5 41.0523 39.0523 41.5 38.5 41.5V42.5V43.5C40.1569 43.5 41.5 42.1569 41.5 40.5H40.5ZM38.5 34.5V35.5C39.0523 35.5 39.5 35.9477 39.5 36.5H40.5H41.5C41.5 34.8431 40.1569 33.5 38.5 33.5V34.5ZM31.9164 34.5V33.5C31.1402 33.5 30.3746 33.3193 29.6803 32.9721L29.2331 33.8666L28.7859 34.761C29.7579 35.247 30.8297 35.5 31.9164 35.5V34.5Z" fill="white"/>
</svg>
