<svg width="49" height="49" viewBox="0 0 49 49" fill="none" xmlns="http://www.w3.org/2000/svg">
<path d="M21.2501 5.9439L11.2544 10.3864C8.36319 11.6714 6.4552 14.5491 6.63918 17.7077C7.35845 30.0561 10.9745 35.4924 20.3708 41.8538C22.86 43.539 26.1411 43.5431 28.6285 41.8552C38.0536 35.4592 41.5403 29.946 42.3228 17.7504C42.5268 14.571 40.6157 11.6628 37.7043 10.3688L27.7483 5.9439C25.6798 5.02456 23.3186 5.02456 21.2501 5.9439Z" stroke="white" stroke-width="2" stroke-linejoin="round"/>
<path d="M18.5 32.5V30.9393L24.7786 24.5231C25.5155 23.7717 26.1223 23.1185 26.5991 22.5636C27.0759 22.0029 27.4288 21.4769 27.6579 20.9855C27.8932 20.4884 28.0108 19.9682 28.0108 19.4249C28.0108 18.8006 27.8498 18.2601 27.5279 17.8035C27.2121 17.3468 26.7786 16.9942 26.2276 16.7457C25.6765 16.4971 25.0573 16.3728 24.37 16.3728C23.6393 16.3728 23.0015 16.5145 22.4567 16.7977C21.918 17.0751 21.5 17.4653 21.2028 17.9682C20.9118 18.4711 20.7663 19.0607 20.7663 19.737H18.5743C18.5743 18.6965 18.8313 17.7832 19.3452 16.9971C19.8591 16.211 20.5588 15.5983 21.4443 15.159C22.3359 14.7197 23.3359 14.5 24.4443 14.5C25.5588 14.5 26.5464 14.7197 27.4071 15.159C28.2678 15.5983 28.9427 16.1908 29.4319 16.9364C29.9211 17.6821 30.1656 18.5116 30.1656 19.4249C30.1656 20.078 30.0387 20.7168 29.7848 21.341C29.5372 21.9595 29.1037 22.6503 28.4845 23.4133C27.8715 24.1705 27.0201 25.0954 25.9303 26.1879L21.6579 30.4538V30.5925H30.5V32.5H18.5Z" fill="white"/>
</svg>
