<svg width="49" height="49" viewBox="0 0 49 49" fill="none" xmlns="http://www.w3.org/2000/svg">
<path d="M34.5 32.4999V41.5458C34.5 42.9607 33.0709 43.9283 31.7572 43.4028L25.2428 40.797C24.766 40.6063 24.234 40.6063 23.7572 40.797L17.2428 43.4028C15.9291 43.9283 14.5 42.9607 14.5 41.5458V32.4999" stroke="white" stroke-width="2" stroke-linejoin="round"/>
<path d="M21.6846 5.5369C23.3069 4.15437 25.6931 4.15437 27.3154 5.5369L28.746 6.75605C29.4412 7.3485 30.3056 7.70654 31.2161 7.7792L33.0897 7.92872C35.2145 8.09828 36.9017 9.78551 37.0713 11.9103L37.2208 13.7839C37.2935 14.6944 37.6515 15.5588 38.2439 16.254L39.4631 17.6846C40.8456 19.3069 40.8456 21.6931 39.4631 23.3154L38.2439 24.746C37.6515 25.4412 37.2935 26.3056 37.2208 27.2161L37.0713 29.0897C36.9017 31.2145 35.2145 32.9017 33.0897 33.0713L31.2161 33.2208C30.3056 33.2935 29.4412 33.6515 28.746 34.2439L27.3154 35.4631C25.6931 36.8456 23.3069 36.8456 21.6846 35.4631L20.254 34.2439C19.5588 33.6515 18.6944 33.2935 17.7839 33.2208L15.9103 33.0713C13.7855 32.9017 12.0983 31.2145 11.9287 29.0897L11.7792 27.2161C11.7065 26.3056 11.3485 25.4412 10.7561 24.746L9.5369 23.3154C8.15437 21.6931 8.15437 19.3069 9.5369 17.6846L10.7561 16.254C11.3485 15.5588 11.7065 14.6944 11.7792 13.7839L11.9287 11.9103C12.0983 9.78551 13.7855 8.09828 15.9103 7.92872L17.7839 7.7792C18.6944 7.70654 19.5588 7.3485 20.254 6.75605L21.6846 5.5369Z" stroke="white" stroke-width="2"/>
<path d="M20.0865 16.8889H18.5433C17.6909 16.8889 17 17.5853 17 18.4444V25.4444C17 26.3036 17.6909 27 18.5433 27H20.0865C20.9388 27 21.6298 26.3036 21.6298 25.4444V18.4444C21.6298 17.5853 20.9388 16.8889 20.0865 16.8889Z" stroke="white" stroke-width="2" stroke-linecap="round" stroke-linejoin="round"/>
<path d="M27.7078 27H24.8792C24.2698 27 23.6741 26.8182 23.1671 26.4775L21.9734 25.6753C21.7587 25.5311 21.6298 25.2882 21.6298 25.0282V18.651C21.6298 18.5156 21.6648 18.3826 21.7314 18.2651L24.7163 13H25.7415C27.2823 13 28.2013 14.7308 27.3466 16.023L26.2595 17.6667H30.456C31.46 17.6667 32.1967 18.6177 31.9532 19.5995L30.7021 24.6434C30.3586 26.0284 29.1241 27 27.7078 27Z" stroke="white" stroke-width="2" stroke-linecap="round" stroke-linejoin="round"/>
</svg>
